<mxfile host="app.diagrams.net" modified="2021-07-15T06:22:36.666Z" agent="5.0 (Macintosh; Intel Mac OS X 10_15_7) AppleWebKit/537.36 (KHTML, like Gecko) Chrome/91.0.4472.114 Safari/537.36" etag="mpaHsI7qBFeMfhFFuFon" version="14.8.6" type="github" pages="3">
  <diagram id="C5RBs43oDa-KdzZeNtuy" name="Page-1">
    <mxGraphModel dx="1412" dy="780" grid="1" gridSize="10" guides="1" tooltips="1" connect="1" arrows="1" fold="1" page="1" pageScale="1" pageWidth="827" pageHeight="1169" math="0" shadow="0">
      <root>
        <mxCell id="WIyWlLk6GJQsqaUBKTNV-0" />
        <mxCell id="WIyWlLk6GJQsqaUBKTNV-1" parent="WIyWlLk6GJQsqaUBKTNV-0" />
        <mxCell id="Ab-Om4u3-Ci9J2pKWlP_-0" value="桌面浏览器" style="rounded=1;whiteSpace=wrap;html=1;fillColor=#1ba1e2;strokeColor=#006EAF;fontColor=#ffffff;" parent="WIyWlLk6GJQsqaUBKTNV-1" vertex="1">
          <mxGeometry x="99" y="40" width="120" height="40" as="geometry" />
        </mxCell>
        <mxCell id="Ab-Om4u3-Ci9J2pKWlP_-1" value="手机" style="rounded=1;whiteSpace=wrap;html=1;fillColor=#1ba1e2;strokeColor=#006EAF;fontColor=#ffffff;" parent="WIyWlLk6GJQsqaUBKTNV-1" vertex="1">
          <mxGeometry x="99" y="140" width="120" height="40" as="geometry" />
        </mxCell>
        <mxCell id="Ab-Om4u3-Ci9J2pKWlP_-5" style="edgeStyle=orthogonalEdgeStyle;rounded=1;orthogonalLoop=1;jettySize=auto;html=1;exitX=0;exitY=0.5;exitDx=0;exitDy=0;entryX=1;entryY=0.5;entryDx=0;entryDy=0;" parent="WIyWlLk6GJQsqaUBKTNV-1" source="Ab-Om4u3-Ci9J2pKWlP_-2" target="Ab-Om4u3-Ci9J2pKWlP_-0" edge="1">
          <mxGeometry relative="1" as="geometry" />
        </mxCell>
        <mxCell id="Ab-Om4u3-Ci9J2pKWlP_-6" style="edgeStyle=orthogonalEdgeStyle;rounded=1;orthogonalLoop=1;jettySize=auto;html=1;exitX=0;exitY=0.5;exitDx=0;exitDy=0;entryX=1;entryY=0.5;entryDx=0;entryDy=0;startArrow=classic;startFill=1;" parent="WIyWlLk6GJQsqaUBKTNV-1" source="Ab-Om4u3-Ci9J2pKWlP_-2" target="Ab-Om4u3-Ci9J2pKWlP_-1" edge="1">
          <mxGeometry relative="1" as="geometry" />
        </mxCell>
        <mxCell id="Ab-Om4u3-Ci9J2pKWlP_-7" style="edgeStyle=orthogonalEdgeStyle;rounded=0;orthogonalLoop=1;jettySize=auto;html=1;startArrow=classic;startFill=1;" parent="WIyWlLk6GJQsqaUBKTNV-1" source="Ab-Om4u3-Ci9J2pKWlP_-2" target="Ab-Om4u3-Ci9J2pKWlP_-3" edge="1">
          <mxGeometry relative="1" as="geometry" />
        </mxCell>
        <mxCell id="Ab-Om4u3-Ci9J2pKWlP_-2" value="GraphQL" style="rounded=1;whiteSpace=wrap;html=1;fillColor=#b1ddf0;strokeColor=#10739e;" parent="WIyWlLk6GJQsqaUBKTNV-1" vertex="1">
          <mxGeometry x="339" y="80" width="120" height="60" as="geometry" />
        </mxCell>
        <mxCell id="Ab-Om4u3-Ci9J2pKWlP_-3" value="数据库" style="rounded=1;whiteSpace=wrap;html=1;fillColor=#fff2cc;strokeColor=#d6b656;" parent="WIyWlLk6GJQsqaUBKTNV-1" vertex="1">
          <mxGeometry x="609" y="80" width="120" height="60" as="geometry" />
        </mxCell>
        <mxCell id="Ab-Om4u3-Ci9J2pKWlP_-10" value="POST&amp;nbsp; /graphql" style="rounded=1;whiteSpace=wrap;html=1;fillColor=#d5e8d4;strokeColor=#82b366;gradientColor=#97d077;" parent="WIyWlLk6GJQsqaUBKTNV-1" vertex="1">
          <mxGeometry x="184" y="250" width="460" height="60" as="geometry" />
        </mxCell>
        <mxCell id="Ab-Om4u3-Ci9J2pKWlP_-11" value="GET /posts?userID=456&amp;nbsp;" style="rounded=1;whiteSpace=wrap;html=1;fillColor=#d5e8d4;strokeColor=#82b366;gradientColor=#97d077;" parent="WIyWlLk6GJQsqaUBKTNV-1" vertex="1">
          <mxGeometry x="184" y="360" width="460" height="60" as="geometry" />
        </mxCell>
        <mxCell id="Ab-Om4u3-Ci9J2pKWlP_-12" value="GET /posts/123/commentList" style="rounded=1;whiteSpace=wrap;html=1;fillColor=#d5e8d4;strokeColor=#82b366;gradientColor=#97d077;" parent="WIyWlLk6GJQsqaUBKTNV-1" vertex="1">
          <mxGeometry x="184" y="470" width="460" height="60" as="geometry" />
        </mxCell>
      </root>
    </mxGraphModel>
  </diagram>
  <diagram id="IcuD4u0OY958gP0KX59y" name="Page-2">
    <mxGraphModel dx="1412" dy="780" grid="1" gridSize="10" guides="1" tooltips="1" connect="1" arrows="1" fold="1" page="1" pageScale="1" pageWidth="827" pageHeight="1169" math="0" shadow="0">
      <root>
        <mxCell id="MehgH4db7BUuGVIodG4q-0" />
        <mxCell id="MehgH4db7BUuGVIodG4q-1" parent="MehgH4db7BUuGVIodG4q-0" />
        <mxCell id="2fULNr7L6oy_uU215u7c-0" value="桌面浏览器" style="rounded=1;whiteSpace=wrap;html=1;fillColor=#1ba1e2;strokeColor=#006EAF;fontColor=#ffffff;" parent="MehgH4db7BUuGVIodG4q-1" vertex="1">
          <mxGeometry x="99" y="40" width="120" height="40" as="geometry" />
        </mxCell>
        <mxCell id="2fULNr7L6oy_uU215u7c-1" value="手机" style="rounded=1;whiteSpace=wrap;html=1;fillColor=#1ba1e2;strokeColor=#006EAF;fontColor=#ffffff;" parent="MehgH4db7BUuGVIodG4q-1" vertex="1">
          <mxGeometry x="99" y="140" width="120" height="40" as="geometry" />
        </mxCell>
        <mxCell id="2fULNr7L6oy_uU215u7c-2" style="edgeStyle=orthogonalEdgeStyle;rounded=1;orthogonalLoop=1;jettySize=auto;html=1;exitX=0;exitY=0.5;exitDx=0;exitDy=0;entryX=1;entryY=0.5;entryDx=0;entryDy=0;" parent="MehgH4db7BUuGVIodG4q-1" source="2fULNr7L6oy_uU215u7c-5" target="2fULNr7L6oy_uU215u7c-0" edge="1">
          <mxGeometry relative="1" as="geometry" />
        </mxCell>
        <mxCell id="2fULNr7L6oy_uU215u7c-3" style="edgeStyle=orthogonalEdgeStyle;rounded=1;orthogonalLoop=1;jettySize=auto;html=1;exitX=0;exitY=0.5;exitDx=0;exitDy=0;entryX=1;entryY=0.5;entryDx=0;entryDy=0;startArrow=classic;startFill=1;" parent="MehgH4db7BUuGVIodG4q-1" source="2fULNr7L6oy_uU215u7c-5" target="2fULNr7L6oy_uU215u7c-1" edge="1">
          <mxGeometry relative="1" as="geometry" />
        </mxCell>
        <mxCell id="2fULNr7L6oy_uU215u7c-4" style="edgeStyle=orthogonalEdgeStyle;rounded=0;orthogonalLoop=1;jettySize=auto;html=1;startArrow=classic;startFill=1;" parent="MehgH4db7BUuGVIodG4q-1" source="2fULNr7L6oy_uU215u7c-5" target="2fULNr7L6oy_uU215u7c-6" edge="1">
          <mxGeometry relative="1" as="geometry" />
        </mxCell>
        <mxCell id="2fULNr7L6oy_uU215u7c-5" value="GraphQL" style="rounded=1;whiteSpace=wrap;html=1;fillColor=#b1ddf0;strokeColor=#10739e;" parent="MehgH4db7BUuGVIodG4q-1" vertex="1">
          <mxGeometry x="339" y="80" width="120" height="60" as="geometry" />
        </mxCell>
        <mxCell id="2fULNr7L6oy_uU215u7c-6" value="数据库" style="rounded=1;whiteSpace=wrap;html=1;fillColor=#fff2cc;strokeColor=#d6b656;" parent="MehgH4db7BUuGVIodG4q-1" vertex="1">
          <mxGeometry x="609" y="80" width="120" height="60" as="geometry" />
        </mxCell>
        <mxCell id="2fULNr7L6oy_uU215u7c-7" value="POST&amp;nbsp; /graphql" style="rounded=1;whiteSpace=wrap;html=1;fillColor=#d5e8d4;strokeColor=#82b366;gradientColor=#97d077;" parent="MehgH4db7BUuGVIodG4q-1" vertex="1">
          <mxGeometry x="184" y="250" width="460" height="60" as="geometry" />
        </mxCell>
      </root>
    </mxGraphModel>
  </diagram>
  <diagram id="vp8FjtLpDw4IXydDPTeb" name="Page-3">
    <mxGraphModel dx="1412" dy="780" grid="1" gridSize="10" guides="1" tooltips="1" connect="1" arrows="1" fold="1" page="1" pageScale="1" pageWidth="827" pageHeight="1169" math="0" shadow="0">
      <root>
        <mxCell id="qX374y3ybFRRp---xl2C-0" />
        <mxCell id="qX374y3ybFRRp---xl2C-1" parent="qX374y3ybFRRp---xl2C-0" />
        <mxCell id="qX374y3ybFRRp---xl2C-2" value="System" style="swimlane;fontStyle=0;childLayout=stackLayout;horizontal=1;startSize=26;fillColor=none;horizontalStack=0;resizeParent=1;resizeParentMax=0;resizeLast=0;collapsible=1;marginBottom=0;labelBorderColor=none;" vertex="1" parent="qX374y3ybFRRp---xl2C-1">
          <mxGeometry x="150" y="110" width="200" height="104" as="geometry" />
        </mxCell>
        <mxCell id="qX374y3ybFRRp---xl2C-3" value="+ _id: ID!" style="text;strokeColor=none;fillColor=none;align=left;verticalAlign=top;spacingLeft=4;spacingRight=4;overflow=hidden;rotatable=0;points=[[0,0.5],[1,0.5]];portConstraint=eastwest;" vertex="1" parent="qX374y3ybFRRp---xl2C-2">
          <mxGeometry y="26" width="200" height="26" as="geometry" />
        </mxCell>
        <mxCell id="qX374y3ybFRRp---xl2C-5" value="+ field: type" style="text;strokeColor=none;fillColor=none;align=left;verticalAlign=top;spacingLeft=4;spacingRight=4;overflow=hidden;rotatable=0;points=[[0,0.5],[1,0.5]];portConstraint=eastwest;" vertex="1" parent="qX374y3ybFRRp---xl2C-2">
          <mxGeometry y="52" width="200" height="26" as="geometry" />
        </mxCell>
        <mxCell id="qX374y3ybFRRp---xl2C-4" value="+ descritpion: String&#xa;" style="text;strokeColor=none;fillColor=none;align=left;verticalAlign=top;spacingLeft=5;spacingRight=4;overflow=hidden;rotatable=0;points=[[0,0.5],[1,0.5]];portConstraint=eastwest;spacing=0;" vertex="1" parent="qX374y3ybFRRp---xl2C-2">
          <mxGeometry y="78" width="200" height="26" as="geometry" />
        </mxCell>
      </root>
    </mxGraphModel>
  </diagram>
</mxfile>
